<?xml version="1.0" ?><svg viewBox="0 0 64 64" xmlns="http://www.w3.org/2000/svg"><title/><g data-name="Location Pin" id="Location_Pin"><path d="M56,14.9528V3a1,1,0,0,0-1-1H45a1,1,0,0,0-1,1V5.8078a48.8737,48.8737,0,0,0-11.811-3.79.9846.9846,0,0,0-.3779,0C5.4268,7.092,2.0435,26.6472,2.0122,26.8444A1,1,0,0,0,3,28H8V55a1,1,0,0,0,1,1H55a1,1,0,0,0,1-1V28h5a1,1,0,0,0,.9873-1.1577A27.0775,27.0775,0,0,0,56,14.9528Z" style="fill:#ffcb8e"/><rect height="8" rx="1" style="fill:#e97171" width="54" x="5" y="54.0002"/><path d="M38,48H35.2163c3.8043-2.9472,10.228-9.295,10.228-18.5557a13.4443,13.4443,0,1,0-26.8886,0c0,9.2607,6.4237,15.6085,10.2281,18.5557H26a1,1,0,0,0,0,2H38a1,1,0,0,0,0-2Z" style="fill:#f5efef"/><circle cx="32" cy="29.4444" r="7.2222" style="fill:#ffcb8e"/><path d="M56,14.9528V3a1,1,0,0,0-1-1H45a1,1,0,0,0-1,1V5.8078a48.8737,48.8737,0,0,0-11.811-3.79.9783.9783,0,0,0-.189,0V62H58a1,1,0,0,0,1-1V55a1,1,0,0,0-1-1H56V28h5a1,1,0,0,0,.9873-1.1577A27.0775,27.0775,0,0,0,56,14.9528Z" style="opacity:0.1"/><path d="M56,14.9527V3a1,1,0,0,0-1-1H45a1,1,0,0,0-1,1V5.8077a48.8737,48.8737,0,0,0-11.811-3.79.9851.9851,0,0,0-.378,0C5.4268,7.0919,2.0435,26.647,2.0122,26.8443A1,1,0,0,0,3,28H8V54H6a1,1,0,0,0-1,1v6a1,1,0,0,0,1,1H58a1,1,0,0,0,1-1V55a1,1,0,0,0-1-1H56V28h5a1,1,0,0,0,.9873-1.1578A27.0806,27.0806,0,0,0,56,14.9527ZM57,60H7V56H57ZM55,26a1,1,0,0,0-1,1V54H10V27a1,1,0,0,0-1-1H4.2485C5.3516,21.8853,10.5806,8.211,32,4.0186a45.6328,45.6328,0,0,1,12.5332,4.294A1,1,0,0,0,46,7.4283V4h8V15.3174a1,1,0,0,0,.2383.648A27.256,27.256,0,0,1,59.7344,26Z" style="fill:#2d4059"/><path d="M45.4443,29.4444a13.4443,13.4443,0,1,0-26.8886,0c0,9.2607,6.4237,15.6085,10.2281,18.5557H26a1,1,0,0,0,0,2H38a1,1,0,0,0,0-2H35.2163C39.0206,45.0529,45.4443,38.7051,45.4443,29.4444ZM31.999,47.8228c-2.26-1.4619-11.4433-8.041-11.4433-18.3784a11.4443,11.4443,0,1,1,22.8886,0C43.4443,39.76,34.2578,46.3575,31.999,47.8228Z" style="fill:#2d4059"/><path d="M32,22.2222a7.2222,7.2222,0,1,0,7.2222,7.2222A7.23,7.23,0,0,0,32,22.2222Zm0,12.4444a5.2222,5.2222,0,1,1,5.2222-5.2222A5.2283,5.2283,0,0,1,32,34.6666Z" style="fill:#2d4059"/></g></svg>